# xmcd
#
# Track frame offsets:
# 150
# 17423
# 31934
# 43655
# 59190
# 79205
# 94428
# 129664
# 142756
# 157129
# 174836
# 185232
# 199176
# 217483
# 230561
# 245740
# 261651
# 273783
#
# Disc length: 3735 seconds
#
#
# Revision: 0
# Processed by: cddbd v1.5.2PL0 Copyright (c) Steve Scherf et al.
# Submitted via: FreeRIP 2.944 
#
DISCID=190e9512
DTITLE=Norman Blake and Friends - Old Time Pickin' Parlour - Nashville, TN
DYEAR=1971
DGENRE=Bluegrass
TTITLE0=(Intro/Warm-up)
TTITLE1=Randall Collins
TTITLE2=Blackberry Blossom
TTITLE3=The Johnson Boys
TTITLE4=Cattle in the Cane
TTITLE5=Shuckin? the Corn
TTITLE6=Ground Hog (Setting up for guests)
TTITLE7=Old Joe Clark
TTITLE8=Bill Cheatum
TTITLE9=Fifty Years Ago Waltz
TTITLE10=The Maiden's Prayer
TTITLE11=Roll on Buddy
TTITLE12=Instrumental
TTITLE13=(Bashful Brother Oswald Intro) Two Different Worlds
TTITLE14=Tennessee Waltz
TTITLE15=I'll Be All Smiles Tonight
TTITLE16=Farewell Blues
TTITLE17=Kansas City Kitty
EXTD=Norman Blake, Tut Taylor, Frasier Moss, Ed ?Doc? Cullis, \nCharlie Collins, and Bashful Brother Oswald Kirby
EXTT0=
EXTT1=
EXTT2=
EXTT3=
EXTT4=
EXTT5=
EXTT6=
EXTT7=
EXTT8=
EXTT9=
EXTT10=
EXTT11=
EXTT12=
EXTT13=
EXTT14=
EXTT15=
EXTT16=
EXTT17=
PLAYORDER=
